# xmcd
# Copyright (C) 1995-1998 Ti Kan
#
# Track frame offsets:
#       150
#       11512
#       22041
#
# Disc length: 475 seconds
#
# Revision: 0
# Processed by: cddbd v1.5.2PL0 Copyright (c) Steve Scherf et al.
# Submitted via: CD-Transfer v1.0
#
DISCID=1901d903
DTITLE=Trio Alpin - 
DYEAR=08
DGENRE=
TTITLE0=Bei A Flotten Musik (08)
TTITLE1=Ohne Musik Do Gibt´s Koa Feier (08)
TTITLE2=Schau In Meine Augen (08)
EXTD=
EXTT0=
EXTT1=
EXTT2=
PLAYORDER=
